<svg width="20" height="20" viewBox="0 0 20 20" fill="none" xmlns="http://www.w3.org/2000/svg">
<path d="M17 3.05176e-05H11C10.7348 3.05176e-05 10.4804 0.105387 10.2929 0.292924C10.1054 0.48046 10 0.734814 10 1.00003C10 1.26525 10.1054 1.5196 10.2929 1.70714C10.4804 1.89467 10.7348 2.00003 11 2.00003H17C17.2652 2.00003 17.5196 2.10539 17.7071 2.29292C17.8946 2.48046 18 2.73481 18 3.00003V17C18 17.2652 17.8946 17.5196 17.7071 17.7071C17.5196 17.8947 17.2652 18 17 18H11C10.7348 18 10.4804 18.1054 10.2929 18.2929C10.1054 18.4805 10 18.7348 10 19C10 19.2652 10.1054 19.5196 10.2929 19.7071C10.4804 19.8947 10.7348 20 11 20H17C17.7956 20 18.5587 19.684 19.1213 19.1214C19.6839 18.5587 20 17.7957 20 17V3.00003C20 2.20438 19.6839 1.44132 19.1213 0.87871C18.5587 0.316101 17.7956 3.05176e-05 17 3.05176e-05Z" fill="#63482A"/>
<path d="M5.70703 13.293C5.80254 13.3853 5.87872 13.4956 5.93113 13.6176C5.98354 13.7396 6.01113 13.8709 6.01228 14.0036C6.01344 14.1364 5.98813 14.2681 5.93785 14.391C5.88757 14.5139 5.81332 14.6255 5.71943 14.7194C5.62553 14.8133 5.51388 14.8876 5.39099 14.9379C5.26809 14.9881 5.13641 15.0134 5.00363 15.0123C4.87085 15.0111 4.73963 14.9835 4.61763 14.9311C4.49562 14.8787 4.38528 14.8025 4.29303 14.707L0.293031 10.707C0.105559 10.5195 0.000244141 10.2652 0.000244141 10C0.000244141 9.73488 0.105559 9.48057 0.293031 9.29304L4.29303 5.29305C4.38528 5.19754 4.49562 5.12136 4.61763 5.06895C4.73963 5.01654 4.87085 4.98895 5.00363 4.9878C5.13641 4.98665 5.26809 5.01195 5.39099 5.06223C5.51388 5.11251 5.62553 5.18676 5.71943 5.28066C5.81332 5.37455 5.88757 5.4862 5.93785 5.6091C5.98813 5.73199 6.01344 5.86367 6.01228 5.99645C6.01113 6.12923 5.98354 6.26045 5.93113 6.38245C5.87872 6.50446 5.80254 6.6148 5.70703 6.70705L3.41403 9.00004H15C15.2652 9.00004 15.5196 9.1054 15.7071 9.29294C15.8947 9.48047 16 9.73483 16 10C16 10.2653 15.8947 10.5196 15.7071 10.7071C15.5196 10.8947 15.2652 11 15 11H3.41403L5.70703 13.293Z" fill="#63482A"/>
</svg>
