<svg width="34" height="34" viewBox="0 0 34 34" fill="none" xmlns="http://www.w3.org/2000/svg">
<path fill-rule="evenodd" clip-rule="evenodd" d="M17 33C25.8366 33 33 25.8366 33 17C33 8.16344 25.8366 1 17 1C8.16344 1 1 8.16344 1 17C1 25.8366 8.16344 33 17 33Z" fill="#E5AC4B"/>
<path fill-rule="evenodd" clip-rule="evenodd" d="M0.5 17C0.5 7.8873 7.8873 0.5 17 0.5C26.1127 0.5 33.5 7.8873 33.5 17C33.5 26.1127 26.1127 33.5 17 33.5C7.8873 33.5 0.5 26.1127 0.5 17ZM17 1.5C8.43959 1.5 1.5 8.43959 1.5 17C1.5 25.5604 8.43959 32.5 17 32.5C25.5604 32.5 32.5 25.5604 32.5 17C32.5 8.43959 25.5604 1.5 17 1.5Z" fill="white"/>
<path fill-rule="evenodd" clip-rule="evenodd" d="M17 27C22.5228 27 27 22.5228 27 17C27 11.4772 22.5228 7 17 7C11.4772 7 7 11.4772 7 17C7 22.5228 11.4772 27 17 27ZM15.1299 18.8H16.5C16.7357 18.8 16.8536 18.8 16.9268 18.8732C17 18.9464 17 19.0643 17 19.3V23.7299C17 24.6205 17 25.0659 17.1962 25.1091C17.3925 25.1523 17.5795 24.7482 17.9537 23.9399L20.6851 18.0402C21.2768 16.7621 21.5726 16.1231 21.2777 15.6615C20.9828 15.2 20.2786 15.2 18.8701 15.2H17.5C17.2643 15.2 17.1464 15.2 17.0732 15.1268C17 15.0536 17 14.9357 17 14.7V10.2701C17 9.37946 17 8.93413 16.8038 8.89091C16.6075 8.8477 16.4205 9.25182 16.0463 10.0601L13.3149 15.9597C12.7232 17.2379 12.4274 17.8769 12.7223 18.3385C13.0172 18.8 13.7214 18.8 15.1299 18.8Z" fill="white"/>
</svg>
